<svg width="1024" height="1024" viewBox="0 0 84 84" fill="none" xmlns="http://www.w3.org/2000/svg">
  <defs>
    <linearGradient id="main4" x1="36" y1="8" x2="76" y2="76" gradientUnits="userSpaceOnUse">
      <stop offset="0%" stop-color="#FF5A30"/>
      <stop offset="100%" stop-color="#C82800"/>
    </linearGradient>
  </defs>
  <rect width="84" height="84" rx="18" fill="white"/>
  <path d="M6 44 L16 36 L16 74 L6 74 Z" fill="#2A0600" opacity="0.9"/>
  <rect x="16" y="36" width="20" height="38" rx="2" fill="#3E0E00"/>
  <rect x="18" y="41" width="7" height="5" rx="1" fill="#FF9070" opacity="0.5"/>
  <rect x="27" y="41" width="6" height="5" rx="1" fill="#FF9070" opacity="0.2"/>
  <rect x="18" y="50" width="7" height="5" rx="1" fill="#FF9070" opacity="0.2"/>
  <rect x="27" y="50" width="6" height="5" rx="1" fill="#FF9070" opacity="0.5"/>
  <rect x="18" y="59" width="7" height="5" rx="1" fill="#FF9070" opacity="0.5"/>
  <rect x="27" y="59" width="6" height="5" rx="1" fill="#FF9070" opacity="0.15"/>
  <rect x="18" y="68" width="7" height="5" rx="1" fill="#FF9070" opacity="0.15"/>
  <rect x="27" y="68" width="6" height="5" rx="1" fill="#FF9070" opacity="0.5"/>
  <path d="M36 8 L50 2 L50 76 L36 76 Z" fill="#2A0600" opacity="0.95"/>
  <path d="M36 8 L50 2 L76 2 L76 8 Z" fill="#FF9070" opacity="0.45"/>
  <rect x="36" y="8" width="40" height="68" rx="3" fill="url(#main4)"/>
  <rect x="36" y="8" width="40" height="13" rx="3" fill="#FF8060" opacity="0.25"/>
  <line x1="36" y1="22" x2="76" y2="22" stroke="white" stroke-width="0.7" opacity="0.14"/>
  <line x1="36" y1="36" x2="76" y2="36" stroke="white" stroke-width="0.7" opacity="0.14"/>
  <line x1="36" y1="50" x2="76" y2="50" stroke="white" stroke-width="0.7" opacity="0.14"/>
  <line x1="36" y1="64" x2="76" y2="64" stroke="white" stroke-width="0.7" opacity="0.14"/>
  <rect x="39" y="11" width="14" height="9" rx="1.5" fill="white" opacity="0.92"/>
  <rect x="58" y="11" width="15" height="9" rx="1.5" fill="white" opacity="0.32"/>
  <rect x="39" y="25" width="14" height="9" rx="1.5" fill="white" opacity="0.32"/>
  <rect x="58" y="25" width="15" height="9" rx="1.5" fill="white" opacity="0.92"/>
  <rect x="39" y="39" width="14" height="9" rx="1.5" fill="white" opacity="0.92"/>
  <rect x="58" y="39" width="15" height="9" rx="1.5" fill="white" opacity="0.92"/>
  <rect x="39" y="53" width="14" height="9" rx="1.5" fill="white" opacity="0.92"/>
  <rect x="58" y="53" width="15" height="9" rx="1.5" fill="white" opacity="0.28"/>
  <rect x="47" y="66" width="20" height="10" rx="2.5" fill="#2A0600"/>
  <rect x="37" y="14" width="8" height="6" rx="1" fill="white" opacity="0.17"/>
  <rect x="37" y="28" width="8" height="6" rx="1" fill="white" opacity="0.17"/>
  <rect x="37" y="42" width="8" height="6" rx="1" fill="white" opacity="0.17"/>
  <rect x="37" y="56" width="8" height="6" rx="1" fill="white" opacity="0.17"/>
</svg>
